<svg xmlns="http://www.w3.org/2000/svg" xmlns:xlink="http://www.w3.org/1999/xlink" version="1.1" id="Layer_1" x="0px" y="0px" viewBox="120 155 550 300" style="enable-background:new 0 0 792 612;" xml:space="preserve">
  <style type="text/css">
    .st0{fill:none;}
    .st1{fill:#0033FF;}
    .st2{fill-rule:evenodd;clip-rule:evenodd;fill:#03CC54;}
    svg{min-height:54px;}
  </style>
  <g>
    <path class="st0" d="M636.03,427.8c-3.37,0-5.74,2.6-6.24,6.34h12.35C641.77,430.58,639.67,427.8,636.03,427.8z"/>
    <path class="st0" d="M471.95,440.57v0.09c0,2.28,2.05,3.55,4.65,3.55c3.64,0,6.38-2.05,6.38-5.06v-1.37   c-1.41-0.55-3.38-0.96-5.51-0.96C474,436.83,471.95,438.24,471.95,440.57z"/>
    <path class="st0" d="M587.98,306.65c-18.59,0-26.32,18.38-26.32,40.73c0,22.35,7.73,40.74,26.32,40.74   c18.59,0,26.32-18.38,26.32-40.74C614.31,325.04,606.58,306.65,587.98,306.65z"/>
    <path class="st0" d="M343.68,434.88c17.27,0,26.84-10.2,26.84-20.18c0-7.91-4.79-15.67-18.73-15.67h-23.31   c-6.03,3.12-10.2,10.47-10.2,17.75C318.29,427.59,327.45,434.88,343.68,434.88z"/>
    <path class="st0" d="M450.98,427.8c-3.37,0-5.74,2.6-6.24,6.34h12.35C456.73,430.58,454.63,427.8,450.98,427.8z"/>
    <path class="st0" d="M342.64,305.65c-11.65,0-19.15,9.78-19.15,26.01c0,16.23,7.49,26.01,19.15,26.01   c11.45,0,18.94-9.78,18.94-26.01C361.58,315.42,354.09,305.65,342.64,305.65z"/>
    <path class="st0" d="M584.71,440.57v0.09c0,2.28,2.05,3.55,4.65,3.55c3.64,0,6.38-2.05,6.38-5.06v-1.37   c-1.42-0.55-3.38-0.96-5.51-0.96C586.76,436.83,584.71,438.24,584.71,440.57z"/>
    <path class="st1" d="M425.37,423.29c-3.74,0-5.97,1.96-7.52,4.24v-12.94h-5.51v33.27h5.51v-13.58c0-3.74,2.23-5.97,5.42-5.97   c3.28,0,5.15,2.14,5.15,5.88v13.67h5.51v-15.32C433.94,426.93,430.79,423.29,425.37,423.29z"/>
    <path class="st1" d="M451.03,423.29c-6.88,0-11.76,5.65-11.76,12.54v0.09c0,7.43,5.38,12.49,12.35,12.49   c4.42,0,7.57-1.78,9.85-4.51l-3.24-2.87c-1.91,1.87-3.83,2.87-6.52,2.87c-3.55,0-6.34-2.19-6.93-6.11h17.69   c0.04-0.55,0.09-1.05,0.09-1.55C462.56,429.31,458.69,423.29,451.03,423.29z M444.74,434.14c0.5-3.74,2.87-6.34,6.24-6.34   c3.65,0,5.74,2.78,6.11,6.34H444.74z"/>
    <path class="st1" d="M460.86,392.62c0-4.6-1.67-4.87-1.67-4.87h-2.51c-4.18,0-8.36-4.18-8.36-8.36v-42.44   c0-17.13,10.23-27.37,23.39-27.37c11.28,0,19.64,6.26,19.64,20.05v49.76c0,4.18-4.18,8.36-8.36,8.36h-2.51c0,0-1.67,0.44-1.67,4.7   c0,4.26,1.67,6.55,1.67,6.55h49.3c0,0,1.67-1.85,1.67-6.11c0-4.26-1.67-5.13-1.67-5.13h-2.51c-4.18,0-8.36-4.18-8.36-8.36v-50.8   c0-24.03-15.04-35.72-36.77-35.72c-16.08,0-28.41,7.52-35.93,18.59c0,0-0.04-10.96-0.04-12.28c0-3.58-3.44-4.83-7.56-3.17   c-2.78,1.12-16.82,6.06-28.72,6.06c-0.66,0.88-1.69,2.66-1.69,5.57c0,2.56,0.6,3.9,1.67,5.65h2.51c4.18,0,8.36,4.18,8.36,8.36   v57.73c0,4.18-4.18,8.36-8.36,8.36h-2.51c0,0-1.67,0.27-1.67,4.78c0,4.52,1.67,6.46,1.67,6.46h49.3   C459.2,399,460.86,397.23,460.86,392.62z"/>
    <path class="st1" d="M369.72,300.5c-7.46-4.88-16.81-7.76-27.08-7.76c-25.8,0-44.74,17.27-44.74,38.92   c0,13.32,7.28,24.14,17.27,30.8l-17.53,21.78c0,0-2.23,4.04-2.23,8.06c0,4.01,2.55,6.72,2.55,6.72h12.43   c-9.15,5.41-13.32,14.42-13.32,22.12c0,14.98,13.11,27.26,42.46,27.26c29.55,0,57.02-15.61,57.02-40.17   c0-17.48-10.4-29.33-36.42-29.33h-39.33l7.7-10.42c4.37,1.46,7.91,2.08,14.15,2.08c25.6,0,44.74-17.48,44.74-38.92   c0-6.66-1.86-12.89-5.14-18.34h15.21c0.8-1.39,1.67-3.32,1.67-6.54c0-2.52-0.94-5.25-1.65-6.28H369.72z M328.49,399.02h23.31   c13.94,0,18.73,7.77,18.73,15.67c0,9.99-9.57,20.18-26.84,20.18c-16.23,0-25.39-7.28-25.39-18.1   C318.29,409.49,322.46,402.14,328.49,399.02z M342.64,357.67c-11.65,0-19.15-9.78-19.15-26.01c0-16.23,7.49-26.01,19.15-26.01   c11.45,0,18.94,9.78,18.94,26.01C361.58,347.89,354.09,357.67,342.64,357.67z"/>
    <path class="st1" d="M220.81,364.04c-3.35-1.17-6.09-0.14-6.09-0.14c-7.74,13.44-14.74,19.63-25.62,19.63   c-19.64,0-32.17-17.75-32.17-38.85c0-19.64,8.77-38.86,29.04-38.86c12.74,0,22.53,7.94,22.53,20.05l0.29,3.76   c0,0-0.39,1.67,4.91,1.67c5.3,0,6.74-1.67,6.74-1.67l-1.05-27.36c0,0-0.11-0.72-0.49-1.22c-0.37-0.49-0.98-0.87-0.98-0.87   c-8.15-4.59-19.01-7.31-31.75-7.31c-29.87,0-57.65,20.05-57.65,56.2c0,32.38,24.44,52.85,52.44,52.85   c26.32,0,38.54-16.51,43.97-34.89C224.92,367.01,223.45,364.96,220.81,364.04z"/>
    <path class="st1" d="M258.25,285.43c9.54,0,17.28-7.94,17.28-17.72c0-9.8-7.74-17.73-17.28-17.73c-9.54,0-17.28,7.93-17.28,17.73   C240.97,277.49,248.71,285.43,258.25,285.43z"/>
    <path class="st1" d="M272.04,317.87c0-4.18,4.18-8.36,8.36-8.36h2.51c0,0,1.67-1.05,1.67-5.1c0-4.06-1.67-6.14-1.67-6.14h-49.3   c0,0-1.67,2.55-1.67,6.49c0,3.94,1.67,4.75,1.67,4.75h2.51c4.18,0,8.36,4.18,8.36,8.36v41.77v19.74c0,4.18-4.18,8.36-8.36,8.36   h-2.51c0,0-1.67,0.82-1.67,4.76c0,3.94,1.67,6.49,1.67,6.49h49.3c0,0,1.67-2.08,1.67-6.14c0-4.05-1.67-5.1-1.67-5.1h-2.51   c-4.18,0-8.36-4.18-8.36-8.36v-14.4V317.87z"/>
    <path class="st1" d="M590.5,423.42c-3.92,0-6.52,0.82-9.16,2.01l1.5,4.42c2.19-0.91,4.19-1.5,6.88-1.5c3.83,0,5.93,1.82,5.93,5.15   v0.46c-1.87-0.59-3.74-1-6.65-1c-5.61,0-9.76,2.55-9.76,7.89v0.09c0,4.83,4.01,7.43,8.57,7.43c3.64,0,6.15-1.5,7.79-3.46v2.96h5.47   v-14.27C601.07,427.17,597.6,423.42,590.5,423.42z M595.74,439.15c0,3.01-2.74,5.06-6.38,5.06c-2.6,0-4.65-1.27-4.65-3.55v-0.09   c0-2.33,2.05-3.74,5.51-3.74c2.14,0,4.1,0.41,5.51,0.96V439.15z"/>
    <path class="st1" d="M613.15,429.21v-5.42h-5.51v24.07h5.51v-9.16c0-6.38,3.37-9.52,8.21-9.52h0.32v-5.84   C617.43,423.15,614.65,425.62,613.15,429.21z"/>
    <path class="st1" d="M654.42,383.98c0-3.24-1.67-4.22-1.67-4.22h-2.51c-4.18,0-8.35-4.18-8.35-8.36v-73.46c0,0-0.16-2.16-2.47-2.16   h-6.36c-1.25,0-2.21,1.05-2.21,1.05l-8.86,11.57c-1.04,1.36-2.23,0.01-2.23,0.01v0.01c-5.93-6.99-15.89-15.57-33.86-15.57   c-26.95,0-52.64,19.64-52.64,55.57c0,33.63,22.14,53.48,49.3,53.48c15.46,0,25.28-6.48,33.01-16.51v12.42c0,0,0.1,2.84,3.29,3.54   c2.87,0.63,5.07-0.29,5.07-0.29l28.83-12.32C652.74,388.75,654.42,387.23,654.42,383.98z M587.98,388.12   c-18.59,0-26.32-18.38-26.32-40.74c0-22.35,7.73-40.73,26.32-40.73c18.59,0,26.32,18.38,26.32,40.73   C614.31,369.74,606.58,388.12,587.98,388.12z"/>
    <g>
      <path class="st1" d="M653.79,427.93l-1.3-0.31c-0.5-0.12-0.83-0.22-0.98-0.31c-0.24-0.13-0.36-0.33-0.36-0.6    c0-0.29,0.12-0.52,0.36-0.68c0.24-0.16,0.57-0.25,0.97-0.25c0.36,0,0.67,0.06,0.92,0.19c0.37,0.19,0.57,0.51,0.59,0.96h1.51    c-0.03-0.8-0.32-1.41-0.88-1.83c-0.56-0.42-1.24-0.63-2.03-0.63c-0.95,0-1.67,0.22-2.16,0.67c-0.49,0.45-0.73,1.01-0.73,1.68    c0,0.74,0.25,1.28,0.76,1.63c0.3,0.21,0.84,0.4,1.63,0.58l0.8,0.18c0.46,0.1,0.81,0.22,1.03,0.35c0.22,0.14,0.33,0.33,0.33,0.58    c0,0.43-0.22,0.72-0.66,0.87c-0.23,0.08-0.53,0.12-0.9,0.12c-0.62,0-1.06-0.16-1.31-0.46c-0.14-0.17-0.23-0.43-0.28-0.77h-1.5    c0,0.78,0.28,1.4,0.84,1.85c0.56,0.45,1.33,0.67,2.31,0.67c0.96,0,1.7-0.23,2.23-0.68c0.53-0.45,0.79-1.03,0.79-1.71    c0-0.67-0.22-1.18-0.67-1.54C654.79,428.25,654.36,428.07,653.79,427.93z"/>
      <path class="st1" d="M661.91,424.69l-1.36,5.92l-1.37-5.92h-2.29v7.53h1.46v-5.09c0-0.15,0-0.35,0-0.62c0-0.26,0-0.47,0-0.61    l1.42,6.32h1.53l1.43-6.32c0,0.14,0,0.35,0,0.61c0,0.26,0,0.47,0,0.62v5.09h1.46v-7.53H661.91z"/>
    </g>
    <path class="st1" d="M477.74,423.42c-3.92,0-6.52,0.82-9.16,2.01l1.5,4.42c2.19-0.91,4.19-1.5,6.88-1.5c3.83,0,5.93,1.82,5.93,5.15   v0.46c-1.87-0.59-3.74-1-6.66-1c-5.61,0-9.76,2.55-9.76,7.89v0.09c0,4.83,4.01,7.43,8.57,7.43c3.64,0,6.15-1.5,7.79-3.46v2.96h5.47   v-14.27C488.31,427.17,484.85,423.42,477.74,423.42z M482.98,439.15c0,3.01-2.74,5.06-6.38,5.06c-2.6,0-4.65-1.27-4.65-3.55v-0.09   c0-2.33,2.05-3.74,5.51-3.74c2.14,0,4.1,0.41,5.51,0.96V439.15z"/>
    <path class="st1" d="M636.07,423.29c-6.88,0-11.76,5.65-11.76,12.54v0.09c0,7.43,5.38,12.49,12.35,12.49   c4.42,0,7.57-1.78,9.85-4.51l-3.24-2.87c-1.91,1.87-3.83,2.87-6.52,2.87c-3.55,0-6.34-2.19-6.93-6.11h17.69   c0.04-0.55,0.09-1.05,0.09-1.55C647.6,429.31,643.73,423.29,636.07,423.29z M629.78,434.14c0.5-3.74,2.87-6.34,6.24-6.34   c3.65,0,5.74,2.78,6.11,6.34H629.78z"/>
    <path class="st1" d="M566.25,443.62c-4.24,0-7.2-3.46-7.2-7.75v-0.09c0-4.19,2.92-7.66,6.93-7.66c2.78,0,4.56,1.23,6.24,3.01   l3.42-3.69c-2.23-2.46-5.06-4.15-9.62-4.15c-7.2,0-12.49,5.74-12.49,12.58v0.09c0,6.84,5.29,12.44,12.44,12.44   c4.69,0,7.47-1.87,9.85-4.51l-3.33-3.28C570.76,442.39,568.85,443.62,566.25,443.62z"/>
    <rect x="495.19" y="414.58" class="st1" width="5.51" height="33.27"/>
    <path class="st1" d="M514.56,417.18h-5.51v6.61h-3.05v4.74h3.05v12.67c0,5.29,2.87,7.06,6.93,7.06c2.05,0,3.6-0.46,4.97-1.23v-4.51   c-1.1,0.55-2.19,0.82-3.42,0.82c-1.87,0-2.96-0.87-2.96-3.01v-11.81h6.47v-4.74h-6.47V417.18z"/>
    <path class="st1" d="M539.63,423.29c-3.74,0-5.97,1.96-7.52,4.24v-12.94h-5.51v33.27h5.51v-13.58c0-3.74,2.23-5.97,5.43-5.97   c3.28,0,5.15,2.14,5.15,5.88v13.67h5.51v-15.32C548.2,426.93,545.05,423.29,539.63,423.29z"/>
    <path class="st2" d="M245.46,207.23c0.02-11.14,5.06-21.08,12.94-27.75c7.86,6.7,12.85,16.66,12.83,27.8   c-0.02,11.14-5.05,21.08-12.94,27.75C250.43,228.33,245.44,218.37,245.46,207.23 M284.63,178.77c-3.25,7.8-2.64,16.24,0.93,23.22   c7.47-2.39,13.88-7.9,17.13-15.7c3.25-7.8,2.64-16.24-0.93-23.22C294.3,165.45,287.88,170.97,284.63,178.77 M213.99,186.1   c3.22,7.81,9.61,13.35,17.07,15.76c3.6-6.97,4.24-15.4,1.02-23.22c-3.22-7.81-9.61-13.35-17.07-15.76   C211.41,169.85,210.77,178.28,213.99,186.1 M169.22,241.23c7.8,3.25,16.24,2.64,23.22-0.93c-2.39-7.47-7.9-13.88-15.7-17.13   c-7.8-3.25-16.24-2.64-23.22,0.92C155.91,231.56,161.42,237.98,169.22,241.23 M339.77,223.54c-7.81,3.22-13.35,9.61-15.76,17.07   c6.97,3.6,15.4,4.24,23.22,1.02c7.81-3.22,13.35-9.61,15.76-17.07C356.02,220.96,347.58,220.32,339.77,223.54 M318.63,255.01   c-11.14-0.02-21.1,4.97-27.8,12.84c6.67,7.89,16.61,12.92,27.75,12.94c11.14,0.02,21.1-4.97,27.8-12.84   C339.72,260.06,329.77,255.03,318.63,255.01 M291.94,215.97c-7.89,7.86-11.41,18.44-10.58,28.73c10.29,0.86,20.88-2.61,28.78-10.47   c7.89-7.86,11.41-18.44,10.58-28.73C310.42,204.63,299.84,208.11,291.94,215.97 M197.96,255.01c-11.14,0.02-21.08,5.05-27.75,12.94   c6.69,7.87,16.66,12.86,27.8,12.84c11.14-0.02,21.08-5.05,27.75-12.94C219.06,259.98,209.1,254.99,197.96,255.01 M224.65,215.97   c-7.89-7.86-18.48-11.33-28.78-10.47c-0.83,10.29,2.69,20.87,10.58,28.73c7.89,7.86,18.49,11.33,28.78,10.47   C236.06,234.4,232.54,223.83,224.65,215.97"/>
  </g>
  </svg>