<svg aria-labelledby="mainNavLogo" class="MainNav_logoImg__2MlYC" focusable="false" height="18" role="img" viewBox="0 0 72 18" width="72" xmlns="http://www.w3.org/2000/svg"><title id="mainNavLogo">Oscar home</title><path d="M23.74 7.38c-1.3-.408-2.849-.933-2.849-2.274 0-1.026 1.13-1.725 2.205-1.725 1.074 0 2.148.64 2.317 1.959h2.94C28.148 1.865 25.163.617 23.208.617c-3.256 0-5.257 2.157-5.257 4.664 0 3.498 3.075 4.221 4.838 4.874 1.527.56 2.996 1.05 2.996 2.472 0 1.376-1.108 2.215-2.43 2.215-1.64 0-2.77-1.107-2.883-2.938h-2.996c.057 4.43 3.674 5.713 5.766 5.713 3.448 0 5.482-2.238 5.482-5.153-.01-3.801-3.606-4.641-4.985-5.084zM8.456.617C3.595.617 0 4.582 0 9.012c0 4.105 3.188 8.605 8.456 8.605 5.313 0 8.456-4.57 8.456-8.535C16.9 4.442 13.204.617 8.456.617zm0 14.202c-3.256 0-5.483-2.822-5.483-5.713 0-2.857 2.205-5.69 5.483-5.69 3.278 0 5.483 2.821 5.483 5.655-.012 3.043-2.352 5.748-5.483 5.748zm29.358 0c-3.255 0-5.335-2.822-5.335-5.713 0-2.857 2.057-5.69 5.335-5.69 2.714 0 4.093 1.865 4.545 3.008h3.2C45.082 4.034 42.37.617 37.813.617c-4.86 0-8.309 3.965-8.309 8.395 0 4.105 3.053 8.605 8.31 8.605 4.634 0 7.257-3.323 7.8-5.83h-3.301c-.464 1.143-1.786 3.032-4.5 3.032zM60.028 3.276h-.056c-1.13-1.75-3.075-2.659-5.257-2.659-5.63 0-8.309 4.524-8.309 8.454 0 3.929 2.68 8.546 8.309 8.546 2.17 0 4.126-.91 5.257-2.658h.056v2.239h2.996V1.06h-2.996v2.216zm-5.313 11.543c-3.595 0-5.336-3.207-5.336-5.713 0-2.507 1.752-5.69 5.336-5.69 2.996 0 5.404 2.273 5.404 5.69 0 3.416-2.408 5.713-5.404 5.713zm13.362-6.32c0-2.355.792-3.498 1.752-4.104.679-.443 1.674-.641 2.171-.641V.629c-.735 0-2.77.326-4.013 2.239h-.045V1.06h-2.85v16.15h2.997c-.012 0-.012-6.414-.012-8.71z" fill="currentColor" fill-rule="evenodd"></path></svg>